<?xml version="1.0" standalone="no"?>
<!DOCTYPE svg PUBLIC "-//W3C//DTD SVG 20010904//EN"
 "http://www.w3.org/TR/2001/REC-SVG-20010904/DTD/svg10.dtd">
<svg version="1.0" xmlns="http://www.w3.org/2000/svg"
 width="512.000000pt" height="512.000000pt" viewBox="0 0 512.000000 512.000000"
 preserveAspectRatio="xMidYMid meet">
<metadata>
Created by potrace 1.14, written by Peter Selinger 2001-2017
</metadata>
<g transform="translate(0.000000,512.000000) scale(0.100000,-0.100000)"
fill="#000000" stroke="none">
<path d="M2513 4777 c-16 -12 -115 -107 -219 -211 -249 -249 -332 -309 -504
-364 -113 -36 -176 -42 -476 -42 l-292 0 -31 -26 -31 -26 0 -298 c0 -374 -15
-462 -106 -629 -56 -102 -97 -151 -307 -362 -107 -108 -202 -208 -212 -222
-11 -18 -15 -36 -11 -52 4 -15 93 -113 213 -233 219 -220 276 -288 328 -392
82 -165 95 -246 95 -611 l0 -297 31 -26 31 -26 292 0 c359 0 441 -13 606 -95
104 -52 172 -109 392 -328 120 -120 218 -209 233 -213 16 -4 35 0 53 11 15 10
115 106 222 213 207 207 276 265 380 317 165 82 247 95 606 95 l292 0 31 26
31 26 0 297 c0 365 13 446 95 611 52 104 110 173 316 379 107 106 202 205 211
220 26 38 22 66 -13 95 l-31 26 -498 0 -498 0 -31 -26 c-29 -24 -31 -31 -31
-89 0 -129 -53 -341 -116 -467 -81 -161 -232 -332 -382 -431 -199 -133 -431
-196 -676 -184 -161 7 -288 40 -431 112 -235 117 -404 286 -520 519 -73 147
-105 272 -112 437 -17 376 146 722 445 946 308 230 712 286 1077 148 204 -77
398 -231 522 -415 65 -97 87 -142 129 -259 37 -102 60 -131 103 -131 28 0 63
29 74 62 16 45 -79 269 -170 407 -68 100 -229 266 -325 334 -513 362 -1201
300 -1643 -147 -186 -188 -293 -389 -352 -659 -24 -115 -24 -361 1 -477 87
-403 336 -726 701 -908 184 -91 337 -126 550 -126 230 -1 387 37 584 139 275
143 484 371 596 649 38 93 79 253 90 349 l6 57 345 0 c189 0 344 -1 344 -3 0
-2 -58 -62 -128 -134 -184 -186 -255 -284 -313 -431 -63 -159 -71 -211 -76
-513 l-5 -277 -277 -4 c-259 -5 -282 -7 -376 -31 -122 -33 -276 -107 -370
-178 -38 -29 -146 -129 -239 -221 -93 -92 -172 -168 -176 -168 -4 0 -83 76
-176 168 -93 92 -200 192 -239 221 -94 71 -248 145 -370 178 -94 24 -117 26
-376 31 l-277 4 -4 277 c-5 258 -7 282 -32 376 -32 121 -106 276 -177 369 -28
38 -128 146 -220 239 -93 94 -169 174 -169 178 0 3 69 76 153 160 85 85 184
191 220 237 82 102 158 253 193 387 25 94 27 118 32 376 l4 277 277 4 c259 5
282 7 376 31 122 33 276 107 370 178 39 29 146 129 239 221 93 92 172 168 176
168 4 0 83 -76 176 -168 93 -92 201 -192 239 -221 94 -71 249 -145 370 -177
94 -25 118 -27 376 -32 l277 -4 5 -277 c4 -236 7 -288 25 -357 52 -200 138
-355 280 -501 72 -75 128 -82 161 -20 19 36 8 67 -45 123 -138 147 -221 307
-253 488 -6 33 -11 193 -11 357 l0 297 -31 26 -31 26 -292 0 c-360 0 -442 13
-606 96 -106 53 -155 93 -369 306 -112 112 -215 211 -230 220 -34 23 -51 23
-88 -5z"/>
</g>
</svg>
